<svg xmlns="http://www.w3.org/2000/svg" width="97" height="10" viewBox="0 0 97.312 10.273">
<path class="wavePath" d="M74.312,306.625c-2.164,0-3.177-1-4.58-2.381-1.633-1.609-3.666-3.612-7.584-3.612s-5.951,2-7.584,3.612c-1.4,1.382-2.416,2.381-4.58,2.381s-3.177-1-4.58-2.381c-1.633-1.609-3.666-3.612-7.584-3.612s-5.951,2-7.584,3.612c-1.4,1.382-2.416,2.381-4.58,2.381s-3.177-1-4.58-2.381c-1.633-1.609-3.666-3.612-7.584-3.612s-5.951,2-7.584,3.612c-1.4,1.382-2.416,2.381-4.58,2.381s-3.177-1-4.58-2.381c-1.633-1.609-3.666-3.612-7.584-3.612s-5.951,2-7.584,3.612c-1.4,1.382-2.416,2.381-4.58,2.381v4.281c3.918,0,5.951-2,7.584-3.612,1.4-1.382,2.416-2.381,4.58-2.381s3.177,1,4.58,2.381c1.633,1.609,3.666,3.612,7.584,3.612s5.951-2,7.584-3.612c1.4-1.382,2.416-2.381,4.58-2.381s3.177,1,4.58,2.381c1.633,1.609,3.666,3.612,7.584,3.612s5.951-2,7.584-3.612c1.4-1.382,2.416-2.381,4.58-2.381s3.177,1,4.58,2.381c1.633,1.609,3.666,3.612,7.584,3.612s5.951-2,7.584-3.612c1.4-1.382,2.416-2.381,4.58-2.381s3.177,1,4.58,2.381c1.633,1.609,3.666,3.612,7.584,3.612Z" transform="translate(23 -300.632)"></path>
</svg>