<svg id="Layer_1" data-name="Layer 1" xmlns="http://www.w3.org/2000/svg" xmlns:xlink="http://www.w3.org/1999/xlink" viewBox="0 0 207.53 205.82"><defs><clipPath id="clip-path"><rect x="0.71" width="205.82" height="205.82" style="fill:none"/></clipPath></defs><g style="clip-path:url(#clip-path)"><line x1="-5.63" y1="209.94" x2="208.24" y2="-3.92" style="fill:#ffc731"/><rect x="-49.92" y="102.51" width="302.45" height="1" transform="translate(-43.17 101.8) rotate(-45)" style="fill:#fcb017"/><line x1="1.45" y1="217.01" x2="215.31" y2="3.15" style="fill:#ffc731"/><rect x="-42.84" y="109.58" width="302.44" height="1" transform="translate(-46.09 108.88) rotate(-45)" style="fill:#fcb017"/><line x1="8.52" y1="224.09" x2="222.38" y2="10.22" style="fill:#ffc731"/><rect x="-35.78" y="116.66" width="302.45" height="1" transform="translate(-49.03 115.95) rotate(-45)" style="fill:#fcb017"/><line x1="15.59" y1="231.16" x2="229.46" y2="17.3" style="fill:#ffc731"/><rect x="-28.7" y="123.73" width="302.45" height="1" transform="translate(-51.96 123.02) rotate(-45)" style="fill:#fcb017"/><line x1="22.67" y1="238.23" x2="236.53" y2="24.37" style="fill:#ffc731"/><rect x="-21.62" y="130.8" width="302.44" height="1" transform="translate(-54.88 130.1) rotate(-45)" style="fill:#fcb017"/><line x1="29.74" y1="245.31" x2="243.6" y2="31.44" style="fill:#ffc731"/><rect x="-14.56" y="137.87" width="302.45" height="1" transform="translate(-57.82 137.17) rotate(-45)" style="fill:#fcb017"/><line x1="36.81" y1="252.38" x2="250.68" y2="38.52" style="fill:#ffc731"/><rect x="-7.48" y="144.95" width="302.45" height="1" transform="translate(-60.75 144.24) rotate(-45)" style="fill:#fcb017"/><line x1="43.89" y1="259.45" x2="257.75" y2="45.59" style="fill:#ffc731"/><rect x="-0.4" y="152.02" width="302.44" height="1" transform="translate(-63.67 151.32) rotate(-45)" style="fill:#fcb017"/><line x1="50.96" y1="266.53" x2="264.82" y2="52.66" style="fill:#ffc731"/><rect x="6.66" y="159.1" width="302.45" height="1" transform="translate(-66.61 158.39) rotate(-45)" style="fill:#fcb017"/><line x1="58.03" y1="273.6" x2="271.9" y2="59.74" style="fill:#ffc731"/><rect x="13.74" y="166.17" width="302.45" height="1" transform="translate(-69.54 165.46) rotate(-45)" style="fill:#fcb017"/><line x1="65.11" y1="280.67" x2="278.97" y2="66.81" style="fill:#ffc731"/><rect x="20.82" y="173.24" width="302.44" height="1" transform="translate(-72.46 172.54) rotate(-45)" style="fill:#fcb017"/><line x1="72.18" y1="287.75" x2="286.04" y2="73.88" style="fill:#ffc731"/><rect x="27.88" y="180.31" width="302.45" height="1" transform="translate(-75.4 179.61) rotate(-45)" style="fill:#fcb017"/><line x1="79.26" y1="294.82" x2="293.12" y2="80.96" style="fill:#ffc731"/><rect x="34.97" y="187.39" width="302.44" height="1" transform="translate(-78.32 186.69) rotate(-45)" style="fill:#fcb017"/><line x1="86.33" y1="301.89" x2="300.19" y2="88.03" style="fill:#ffc731"/><rect x="42.04" y="194.46" width="302.44" height="1" transform="translate(-81.25 193.76) rotate(-45)" style="fill:#fcb017"/><line x1="93.4" y1="308.97" x2="307.26" y2="95.1" style="fill:#ffc731"/><rect x="49.1" y="201.53" width="302.45" height="1" transform="translate(-84.19 200.83) rotate(-45)" style="fill:#fcb017"/></g></svg>